#define uninkable_width  6
#define uninkable_height 6
static unsigned char uninkable_bits[] = {
 0xcc,0xcc,0xff,0xff,0xcc,0xcc};
